<?xml version="1.0" encoding="UTF-8"?>
<svg xmlns="http://www.w3.org/2000/svg" xmlns:xlink="http://www.w3.org/1999/xlink" width="48px" height="48px" viewBox="0 0 48 48" version="1.1">
<g id="surface1">
<path style=" stroke:none;fill-rule:nonzero;fill:rgb(1.568627%,58.823529%,100%);fill-opacity:1;" d="M 24.816406 5.332031 C 14.882812 5.332031 6.816406 13.398438 6.816406 23.332031 C 6.816406 27.449219 8.203125 31.253906 10.53125 34.285156 C 10.582031 34.359375 10.648438 34.425781 10.726562 34.472656 C 10.800781 34.519531 10.886719 34.554688 10.976562 34.566406 C 11.066406 34.582031 11.15625 34.578125 11.246094 34.554688 C 11.332031 34.535156 11.414062 34.492188 11.488281 34.4375 C 11.558594 34.382812 11.617188 34.316406 11.664062 34.234375 C 11.707031 34.15625 11.734375 34.070312 11.746094 33.980469 C 11.753906 33.890625 11.746094 33.800781 11.71875 33.710938 C 11.691406 33.625 11.648438 33.546875 11.589844 33.476562 C 9.351562 30.570312 8.144531 27.003906 8.148438 23.332031 C 8.148438 14.121094 15.601562 6.667969 24.816406 6.667969 C 31.652344 6.667969 37.519531 10.777344 40.09375 16.65625 C 40.125 16.738281 40.175781 16.8125 40.238281 16.878906 C 40.300781 16.941406 40.375 16.992188 40.457031 17.023438 C 40.539062 17.058594 40.628906 17.074219 40.71875 17.074219 C 40.808594 17.074219 40.894531 17.054688 40.976562 17.019531 C 41.058594 16.984375 41.132812 16.929688 41.195312 16.867188 C 41.257812 16.800781 41.304688 16.726562 41.335938 16.640625 C 41.367188 16.558594 41.378906 16.46875 41.375 16.378906 C 41.375 16.289062 41.351562 16.203125 41.3125 16.121094 C 38.53125 9.769531 32.1875 5.332031 24.816406 5.332031 Z M 41.628906 18.585938 C 41.53125 18.589844 41.4375 18.617188 41.347656 18.664062 C 41.261719 18.710938 41.1875 18.777344 41.128906 18.855469 C 41.070312 18.9375 41.027344 19.027344 41.011719 19.125 C 40.992188 19.222656 40.996094 19.320312 41.019531 19.417969 C 41.320312 20.671875 41.484375 21.984375 41.484375 23.332031 C 41.484375 32.546875 34.03125 40 24.816406 40 C 20.738281 40.007812 16.800781 38.511719 13.757812 35.800781 C 13.625 35.683594 13.449219 35.625 13.273438 35.636719 C 13.097656 35.644531 12.933594 35.726562 12.816406 35.859375 C 12.699219 35.992188 12.636719 36.164062 12.648438 36.339844 C 12.65625 36.515625 12.738281 36.683594 12.871094 36.800781 C 16.160156 39.726562 20.414062 41.339844 24.816406 41.332031 C 34.75 41.332031 42.816406 33.265625 42.816406 23.332031 C 42.816406 21.878906 42.644531 20.460938 42.316406 19.105469 C 42.28125 18.949219 42.191406 18.816406 42.066406 18.71875 C 41.941406 18.625 41.789062 18.578125 41.628906 18.585938 Z M 41.628906 18.585938 "/>
<path style=" stroke:none;fill-rule:nonzero;fill:rgb(1.568627%,58.823529%,100%);fill-opacity:1;" d="M 12.367188 10.667969 C 12.277344 10.667969 12.1875 10.683594 12.105469 10.71875 C 12.023438 10.753906 11.949219 10.808594 11.886719 10.871094 C 11.070312 11.722656 10.339844 12.648438 9.703125 13.640625 C 9.640625 13.742188 9.601562 13.859375 9.597656 13.976562 C 9.59375 14.097656 9.621094 14.214844 9.679688 14.320312 C 9.738281 14.425781 9.824219 14.515625 9.925781 14.574219 C 10.027344 14.636719 10.148438 14.667969 10.265625 14.667969 L 22.183594 14.667969 C 23.28125 14.667969 24.183594 13.761719 24.183594 12.667969 C 24.183594 11.570312 23.28125 10.667969 22.183594 10.667969 Z M 27.527344 10.667969 C 26.433594 10.667969 25.53125 11.570312 25.53125 12.667969 C 25.53125 13.761719 26.433594 14.667969 27.527344 14.667969 C 28.625 14.667969 29.53125 13.761719 29.53125 12.667969 C 29.53125 11.570312 28.625 10.667969 27.527344 10.667969 Z M 12.683594 12 L 22.183594 12 C 22.5625 12 22.847656 12.285156 22.847656 12.667969 C 22.847656 13.046875 22.5625 13.332031 22.183594 13.332031 L 11.636719 13.332031 C 11.980469 12.882812 12.300781 12.414062 12.683594 12 Z M 27.527344 12 C 27.910156 12 28.195312 12.285156 28.195312 12.667969 C 28.195312 13.046875 27.910156 13.332031 27.527344 13.332031 C 27.441406 13.335938 27.351562 13.320312 27.273438 13.285156 C 27.191406 13.253906 27.117188 13.207031 27.054688 13.144531 C 26.992188 13.082031 26.941406 13.007812 26.910156 12.925781 C 26.875 12.84375 26.859375 12.753906 26.863281 12.667969 C 26.863281 12.285156 27.148438 12 27.527344 12 Z M 31.515625 16 C 30.421875 16 29.515625 16.902344 29.515625 18 C 29.515625 19.097656 30.421875 20 31.515625 20 L 37.46875 20 C 37.644531 20 37.816406 19.929688 37.941406 19.804688 C 38.066406 19.679688 38.136719 19.511719 38.136719 19.332031 C 38.136719 19.15625 38.066406 18.988281 37.941406 18.863281 C 37.816406 18.738281 37.644531 18.667969 37.46875 18.667969 L 31.515625 18.667969 C 31.429688 18.667969 31.339844 18.652344 31.257812 18.621094 C 31.175781 18.585938 31.101562 18.539062 31.039062 18.476562 C 30.976562 18.414062 30.929688 18.339844 30.894531 18.257812 C 30.863281 18.175781 30.847656 18.089844 30.847656 18 C 30.847656 17.617188 31.136719 17.332031 31.515625 17.332031 L 40.570312 17.332031 C 40.746094 17.332031 40.914062 17.261719 41.039062 17.136719 C 41.164062 17.011719 41.234375 16.84375 41.234375 16.667969 C 41.234375 16.488281 41.164062 16.320312 41.039062 16.195312 C 40.914062 16.070312 40.746094 16 40.570312 16 Z M 7.515625 22.667969 C 7.429688 22.667969 7.339844 22.683594 7.261719 22.71875 C 7.179688 22.75 7.105469 22.800781 7.042969 22.863281 C 6.980469 22.925781 6.933594 23 6.898438 23.078125 C 6.867188 23.160156 6.847656 23.25 6.847656 23.335938 C 6.851562 24.265625 6.929688 25.191406 7.074219 26.105469 C 7.101562 26.261719 7.183594 26.40625 7.304688 26.507812 C 7.421875 26.609375 7.578125 26.667969 7.734375 26.667969 L 15.515625 26.667969 C 16.613281 26.667969 17.515625 25.761719 17.515625 24.667969 C 17.515625 23.570312 16.613281 22.667969 15.515625 22.667969 Z M 8.238281 24 L 15.515625 24 C 15.898438 24 16.183594 24.285156 16.183594 24.667969 C 16.183594 25.046875 15.898438 25.332031 15.515625 25.332031 L 8.34375 25.332031 C 8.289062 24.890625 8.253906 24.445312 8.238281 24 Z M 27.464844 24 C 26.984375 24 26.507812 24.105469 26.070312 24.308594 C 25.632812 24.511719 25.242188 24.804688 24.929688 25.171875 C 24.617188 25.539062 24.386719 25.972656 24.257812 26.433594 C 24.125 26.898438 24.097656 27.386719 24.171875 27.863281 C 24.203125 28.039062 24.296875 28.195312 24.441406 28.296875 C 24.585938 28.402344 24.765625 28.441406 24.9375 28.414062 C 25.113281 28.386719 25.269531 28.289062 25.375 28.144531 C 25.476562 28.003906 25.519531 27.824219 25.492188 27.648438 C 25.472656 27.542969 25.464844 27.4375 25.464844 27.332031 C 25.464844 26.214844 26.347656 25.332031 27.464844 25.332031 L 30.085938 25.332031 C 30.261719 25.332031 30.433594 25.261719 30.558594 25.136719 C 30.683594 25.011719 30.753906 24.84375 30.753906 24.667969 C 30.753906 24.488281 30.683594 24.320312 30.558594 24.195312 C 30.433594 24.070312 30.261719 24 30.085938 24 Z M 34.792969 24 C 34.613281 24 34.445312 24.070312 34.320312 24.195312 C 34.195312 24.320312 34.125 24.488281 34.125 24.667969 C 34.125 24.84375 34.195312 25.011719 34.320312 25.136719 C 34.445312 25.261719 34.613281 25.332031 34.792969 25.332031 L 41.28125 25.332031 C 41.117188 26.703125 40.824219 28.046875 40.328125 29.332031 L 27.464844 29.332031 C 27.261719 29.332031 27.0625 29.304688 26.878906 29.246094 C 26.792969 29.222656 26.707031 29.210938 26.617188 29.21875 C 26.53125 29.230469 26.445312 29.253906 26.367188 29.296875 C 26.289062 29.335938 26.222656 29.394531 26.167969 29.460938 C 26.109375 29.527344 26.066406 29.605469 26.042969 29.691406 C 26.015625 29.777344 26.007812 29.863281 26.015625 29.953125 C 26.027344 30.039062 26.050781 30.125 26.09375 30.199219 C 26.136719 30.277344 26.191406 30.347656 26.261719 30.402344 C 26.328125 30.457031 26.40625 30.5 26.492188 30.523438 C 26.800781 30.617188 27.128906 30.667969 27.464844 30.667969 L 40.847656 30.667969 C 40.980469 30.667969 41.109375 30.625 41.214844 30.554688 C 41.324219 30.480469 41.410156 30.378906 41.460938 30.253906 C 42.191406 28.492188 42.636719 26.621094 42.78125 24.71875 C 42.789062 24.625 42.777344 24.535156 42.746094 24.449219 C 42.714844 24.363281 42.667969 24.28125 42.605469 24.214844 C 42.542969 24.148438 42.46875 24.09375 42.382812 24.058594 C 42.300781 24.019531 42.210938 24 42.117188 24 Z M 34.792969 24 "/>
<path style=" stroke:none;fill-rule:nonzero;fill:rgb(1.568627%,58.823529%,100%);fill-opacity:1;" d="M 43.199219 9.332031 C 41.605469 9.429688 39.5625 9.910156 37.136719 10.746094 C 37.03125 10.78125 36.9375 10.84375 36.863281 10.925781 C 36.785156 11.007812 36.730469 11.109375 36.707031 11.21875 C 36.679688 11.328125 36.679688 11.441406 36.710938 11.550781 C 36.738281 11.660156 36.796875 11.757812 36.875 11.839844 C 37.234375 12.214844 37.574219 12.605469 37.898438 13.011719 C 37.984375 13.121094 38.101562 13.199219 38.230469 13.238281 C 38.363281 13.277344 38.503906 13.273438 38.632812 13.230469 C 39.386719 12.980469 40.078125 12.929688 40.582031 13.003906 C 41.082031 13.074219 41.351562 13.277344 41.417969 13.382812 C 41.496094 13.523438 41.5625 13.871094 41.410156 14.363281 C 41.257812 14.855469 40.902344 15.476562 40.285156 16.105469 C 37.355469 18.929688 32.214844 22.640625 26.445312 26.058594 C 20.660156 29.480469 14.910156 32.214844 11.023438 33.417969 C 10.316406 33.605469 9.476562 33.648438 8.941406 33.519531 C 8.671875 33.457031 8.492188 33.351562 8.414062 33.277344 C 8.335938 33.199219 8.3125 33.167969 8.328125 33 C 8.328125 32.980469 8.328125 32.960938 8.328125 32.941406 C 8.328125 32.5 8.738281 31.664062 9.453125 30.425781 C 9.503906 30.335938 9.535156 30.238281 9.542969 30.136719 C 9.546875 30.03125 9.53125 29.929688 9.492188 29.835938 C 9.289062 29.355469 9.109375 28.867188 8.953125 28.371094 C 8.917969 28.265625 8.859375 28.167969 8.777344 28.089844 C 8.695312 28.015625 8.597656 27.957031 8.488281 27.929688 C 8.382812 27.902344 8.269531 27.898438 8.160156 27.925781 C 8.050781 27.953125 7.949219 28.003906 7.867188 28.078125 C 6.027344 29.757812 4.542969 31.023438 3.613281 32.25 C 3.148438 32.863281 2.816406 33.480469 2.703125 34.152344 C 2.59375 34.824219 2.734375 35.523438 3.109375 36.171875 C 3.746094 37.28125 4.953125 38 6.523438 38.183594 C 8.097656 38.371094 10.0625 38.082031 12.488281 37.253906 C 16.960938 35.722656 22.460938 33.078125 27.902344 29.859375 C 33.332031 26.644531 38.277344 23.105469 41.765625 19.929688 C 43.660156 18.210938 45.238281 16.402344 46.183594 14.761719 C 46.660156 13.941406 46.980469 13.164062 47.070312 12.410156 C 47.160156 11.683594 46.964844 10.949219 46.464844 10.414062 C 46.164062 9.96875 45.714844 9.648438 45.199219 9.503906 C 44.632812 9.332031 43.972656 9.289062 43.203125 9.332031 C 43.199219 9.332031 43.199219 9.332031 43.199219 9.332031 Z M 43.277344 10.664062 C 43.945312 10.625 44.46875 10.675781 44.820312 10.78125 C 45.167969 10.886719 45.320312 11.015625 45.398438 11.152344 C 45.429688 11.199219 45.460938 11.242188 45.5 11.285156 C 45.722656 11.503906 45.808594 11.769531 45.746094 12.246094 C 45.691406 12.726562 45.445312 13.375 45.03125 14.097656 C 44.195312 15.542969 42.691406 17.289062 40.871094 18.945312 C 37.484375 22.027344 32.589844 25.535156 27.226562 28.710938 C 21.847656 31.894531 16.398438 34.503906 12.054688 35.992188 C 9.753906 36.777344 7.957031 37.015625 6.679688 36.863281 C 5.40625 36.710938 4.679688 36.226562 4.265625 35.503906 C 4.011719 35.070312 3.957031 34.738281 4.019531 34.371094 C 4.082031 34 4.289062 33.570312 4.675781 33.058594 C 5.316406 32.214844 6.636719 31.046875 8.046875 29.769531 C 8.085938 29.875 8.121094 29.984375 8.164062 30.089844 C 7.554688 31.132812 7.019531 31.996094 7.007812 32.914062 C 6.976562 33.410156 7.152344 33.902344 7.46875 34.21875 C 7.792969 34.546875 8.203125 34.71875 8.632812 34.820312 C 9.492188 35.019531 10.480469 34.945312 11.375 34.707031 C 11.386719 34.703125 11.394531 34.699219 11.402344 34.691406 C 15.476562 33.433594 21.265625 30.667969 27.121094 27.199219 C 27.125 27.199219 27.125 27.199219 27.125 27.199219 C 32.960938 23.742188 38.15625 20.015625 41.222656 17.054688 C 41.226562 17.050781 41.230469 17.046875 41.234375 17.042969 C 41.984375 16.28125 42.457031 15.492188 42.683594 14.746094 C 42.910156 14.003906 42.910156 13.285156 42.574219 12.703125 C 42.570312 12.699219 42.570312 12.695312 42.566406 12.6875 C 42.199219 12.082031 41.53125 11.785156 40.773438 11.675781 C 40.167969 11.585938 39.441406 11.726562 38.710938 11.90625 C 38.667969 11.855469 38.625 11.8125 38.582031 11.761719 C 40.398438 11.199219 42.132812 10.722656 43.277344 10.65625 Z M 43.277344 10.664062 "/>
<path style=" stroke:none;fill-rule:evenodd;fill:rgb(1.568627%,58.823529%,100%);fill-opacity:1;" d="M 14.828125 35 C 14.652344 35 14.484375 35.070312 14.359375 35.195312 C 14.234375 35.320312 14.164062 35.488281 14.164062 35.667969 C 14.164062 35.84375 14.234375 36.011719 14.359375 36.136719 C 14.484375 36.261719 14.652344 36.332031 14.828125 36.332031 L 22.828125 36.332031 C 23.007812 36.332031 23.175781 36.261719 23.300781 36.136719 C 23.425781 36.011719 23.496094 35.84375 23.496094 35.667969 C 23.496094 35.488281 23.425781 35.320312 23.300781 35.195312 C 23.175781 35.070312 23.007812 35 22.828125 35 Z M 16.164062 37.667969 C 15.984375 37.667969 15.816406 37.738281 15.691406 37.863281 C 15.566406 37.988281 15.496094 38.15625 15.496094 38.332031 C 15.496094 38.511719 15.566406 38.679688 15.691406 38.804688 C 15.816406 38.929688 15.984375 39 16.164062 39 L 24.164062 39 C 24.339844 39 24.507812 38.929688 24.632812 38.804688 C 24.757812 38.679688 24.828125 38.511719 24.828125 38.332031 C 24.828125 38.15625 24.757812 37.988281 24.632812 37.863281 C 24.507812 37.738281 24.339844 37.667969 24.164062 37.667969 Z M 16.164062 37.667969 "/>
<path style=" stroke:none;fill-rule:nonzero;fill:rgb(1.568627%,58.823529%,100%);fill-opacity:1;" d="M 26.828125 38.335938 C 26.828125 38.511719 26.757812 38.679688 26.632812 38.804688 C 26.507812 38.929688 26.339844 39 26.164062 39 C 25.984375 39 25.816406 38.929688 25.691406 38.804688 C 25.566406 38.679688 25.496094 38.511719 25.496094 38.335938 C 25.496094 38.15625 25.566406 37.988281 25.691406 37.863281 C 25.816406 37.738281 25.984375 37.667969 26.164062 37.667969 C 26.339844 37.667969 26.507812 37.738281 26.632812 37.863281 C 26.757812 37.988281 26.828125 38.15625 26.828125 38.335938 Z M 26.828125 38.335938 "/>
<path style=" stroke:none;fill-rule:evenodd;fill:rgb(1.568627%,58.823529%,100%);fill-opacity:1;" d="M 30.171875 32.332031 C 29.996094 32.332031 29.828125 32.402344 29.703125 32.527344 C 29.578125 32.652344 29.507812 32.824219 29.507812 33 C 29.507812 33.175781 29.578125 33.347656 29.703125 33.472656 C 29.828125 33.597656 29.996094 33.667969 30.171875 33.667969 L 39.128906 33.667969 C 39.308594 33.667969 39.476562 33.597656 39.601562 33.472656 C 39.726562 33.347656 39.796875 33.175781 39.796875 33 C 39.796875 32.824219 39.726562 32.652344 39.601562 32.527344 C 39.476562 32.402344 39.308594 32.332031 39.128906 32.332031 Z M 30.171875 32.332031 "/>
<path style=" stroke:none;fill-rule:nonzero;fill:rgb(1.568627%,58.823529%,100%);fill-opacity:1;" d="M 28.164062 33 C 28.164062 33.179688 28.09375 33.347656 27.96875 33.472656 C 27.84375 33.597656 27.671875 33.667969 27.496094 33.667969 C 27.320312 33.667969 27.148438 33.597656 27.023438 33.472656 C 26.898438 33.347656 26.828125 33.179688 26.828125 33 C 26.828125 32.824219 26.898438 32.65625 27.023438 32.53125 C 27.148438 32.40625 27.320312 32.335938 27.496094 32.335938 C 27.671875 32.335938 27.84375 32.40625 27.96875 32.53125 C 28.09375 32.65625 28.164062 32.824219 28.164062 33 Z M 28.164062 33 "/>
<path style=" stroke:none;fill-rule:evenodd;fill:rgb(1.568627%,58.823529%,100%);fill-opacity:1;" d="M 8.15625 20.332031 C 7.976562 20.332031 7.808594 20.402344 7.683594 20.527344 C 7.558594 20.652344 7.488281 20.824219 7.488281 21 C 7.488281 21.175781 7.558594 21.347656 7.683594 21.472656 C 7.808594 21.597656 7.976562 21.667969 8.15625 21.667969 L 15.488281 21.667969 C 15.664062 21.667969 15.835938 21.597656 15.960938 21.472656 C 16.085938 21.347656 16.15625 21.175781 16.15625 21 C 16.15625 20.824219 16.085938 20.652344 15.960938 20.527344 C 15.835938 20.402344 15.664062 20.332031 15.488281 20.332031 Z M 8.15625 20.332031 "/>
<path style=" stroke:none;fill-rule:nonzero;fill:rgb(1.568627%,58.823529%,100%);fill-opacity:1;" d="M 18.839844 21 C 18.839844 21.179688 18.769531 21.347656 18.644531 21.472656 C 18.519531 21.597656 18.351562 21.667969 18.171875 21.667969 C 17.996094 21.667969 17.828125 21.597656 17.703125 21.472656 C 17.578125 21.347656 17.507812 21.179688 17.507812 21 C 17.507812 20.824219 17.578125 20.65625 17.703125 20.53125 C 17.828125 20.40625 17.996094 20.335938 18.171875 20.335938 C 18.351562 20.335938 18.519531 20.40625 18.644531 20.53125 C 18.769531 20.65625 18.839844 20.824219 18.839844 21 Z M 18.839844 21 "/>
</g>
</svg>
