<svg width="98" height="56" viewBox="0 0 98 56" fill="none" xmlns="http://www.w3.org/2000/svg">
<path d="M70.952 6.22217C59.3631 6.22217 49.952 15.6334 49.952 27.2223C49.952 32.0258 51.5698 36.4622 54.2874 40.0011C54.3471 40.0881 54.4239 40.1621 54.5131 40.2185C54.6023 40.2749 54.702 40.3126 54.8063 40.3292C54.9105 40.3458 55.017 40.341 55.1193 40.3152C55.2217 40.2893 55.3177 40.2428 55.4015 40.1786C55.4853 40.1145 55.5551 40.0341 55.6068 39.942C55.6585 39.85 55.6909 39.7483 55.7021 39.6434C55.7133 39.5384 55.703 39.4324 55.6718 39.3316C55.6407 39.2307 55.5893 39.1372 55.5209 39.0568C52.9115 35.6641 51.5002 31.5024 51.5076 27.2223C51.5076 16.4734 60.2031 7.77772 70.952 7.77772C78.9274 7.77772 85.7718 12.5735 88.774 19.432C88.8128 19.5286 88.8705 19.6166 88.9439 19.6906C89.0172 19.7645 89.1047 19.8229 89.201 19.8624C89.2974 19.9019 89.4007 19.9217 89.5049 19.9205C89.609 19.9194 89.7118 19.8973 89.8073 19.8556C89.9027 19.8139 89.9888 19.7534 90.0605 19.6779C90.1321 19.6023 90.1879 19.513 90.2244 19.4154C90.2609 19.3179 90.2775 19.2142 90.2731 19.1101C90.2687 19.006 90.2435 18.9038 90.1989 18.8097C86.954 11.399 79.5511 6.22217 70.952 6.22217ZM90.5691 21.6844C90.4541 21.6903 90.3418 21.7216 90.2404 21.7761C90.139 21.8307 90.0509 21.9071 89.9826 21.9998C89.9143 22.0925 89.8674 22.1993 89.8454 22.3124C89.8233 22.4254 89.8267 22.542 89.8551 22.6536C90.2082 24.1189 90.3965 25.6465 90.3965 27.2223C90.3965 37.9712 81.7009 46.6667 70.952 46.6667C66.1953 46.6754 61.602 44.9321 58.0487 41.7697C57.8944 41.6327 57.692 41.5626 57.4861 41.5749C57.2801 41.5871 57.0874 41.6807 56.9505 41.835C56.8135 41.9893 56.7434 42.1917 56.7557 42.3977C56.7679 42.6036 56.8615 42.7964 57.0158 42.9333C60.855 46.3474 65.8159 48.23 70.9536 48.2223C82.5409 48.2223 91.9536 38.8112 91.9536 27.2223C91.9536 25.5236 91.7514 23.8714 91.3687 22.2879C91.3279 22.1092 91.2253 21.9507 91.079 21.8403C90.9327 21.7299 90.7522 21.6747 90.5691 21.6844Z" fill="#0496FF"/>
<path d="M56.4293 12.4446C56.3244 12.4446 56.2205 12.4657 56.124 12.5069C56.0275 12.548 55.9403 12.6083 55.8677 12.684C54.9152 13.6751 54.0623 14.7573 53.3213 15.915C53.2458 16.0326 53.2034 16.1683 53.1986 16.308C53.1938 16.4477 53.2267 16.5861 53.2939 16.7087C53.361 16.8313 53.46 16.9334 53.5803 17.0045C53.7007 17.0756 53.838 17.1131 53.9777 17.1128H67.8797C69.16 17.1128 70.2131 16.0565 70.2131 14.7794C70.2131 13.4992 69.16 12.4461 67.8797 12.4461H56.4309L56.4293 12.4446ZM74.1175 12.4446C72.8388 12.4446 71.7842 13.4992 71.7842 14.7779C71.7842 16.0566 72.8388 17.1112 74.1175 17.1112C75.3977 17.1112 76.4508 16.0566 76.4508 14.7779C76.4508 13.4992 75.3977 12.4446 74.1175 12.4446ZM56.7995 14.0001H67.8797C68.3246 14.0001 68.6575 14.333 68.6575 14.7779C68.6575 15.2228 68.3246 15.5557 67.8797 15.5557H55.5753C55.9751 15.0284 56.35 14.4839 56.7995 14.0001ZM74.1175 14.0001C74.5624 14.0001 74.8953 14.333 74.8953 14.7779C74.8953 15.2228 74.5624 15.5557 74.1175 15.5557C74.0147 15.5583 73.9124 15.5398 73.8169 15.5016C73.7213 15.4634 73.6346 15.4063 73.5618 15.3335C73.4891 15.2608 73.4319 15.174 73.3937 15.0785C73.3555 14.983 73.3372 14.8808 73.3397 14.7779C73.3397 14.333 73.6742 14.0001 74.1175 14.0001ZM78.7686 18.6668C77.49 18.6668 76.4353 19.7215 76.4353 21.0001C76.4353 22.2788 77.49 23.3335 78.7686 23.3335H85.7142C85.9205 23.3335 86.1183 23.2515 86.2642 23.1056C86.41 22.9597 86.492 22.762 86.492 22.5557C86.492 22.3494 86.41 22.1514 86.2642 22.0056C86.1183 21.8597 85.9205 21.7779 85.7142 21.7779H78.7686C78.6658 21.7805 78.5635 21.762 78.468 21.7238C78.3725 21.6856 78.2857 21.6285 78.213 21.5557C78.1402 21.483 78.083 21.3962 78.0448 21.3007C78.0067 21.2052 77.9883 21.103 77.9908 21.0001C77.9908 20.5552 78.3253 20.2224 78.7686 20.2224H89.3308C89.5371 20.2224 89.735 20.1404 89.8808 19.9945C90.0267 19.8486 90.1086 19.6509 90.1086 19.4446C90.1086 19.2383 90.0267 19.0403 89.8808 18.8945C89.735 18.7486 89.5371 18.6668 89.3308 18.6668H78.7686ZM50.7686 26.4446C50.6662 26.4446 50.5648 26.4647 50.4703 26.504C50.3757 26.5433 50.2898 26.6008 50.2176 26.6734C50.1453 26.7459 50.0881 26.832 50.0492 26.9267C50.0103 27.0214 49.9904 27.123 49.9909 27.2254C49.9955 28.3081 50.0842 29.3892 50.2553 30.4578C50.2849 30.6406 50.3787 30.8067 50.5198 30.9265C50.661 31.0462 50.8402 31.1118 51.0253 31.1112H60.102C61.3822 31.1112 62.4353 30.0566 62.4353 28.7779C62.4353 27.4992 61.3822 26.4446 60.102 26.4446H50.7686ZM51.6102 28.0001H60.1035C60.5468 28.0001 60.8813 28.333 60.8813 28.7779C60.8813 29.2228 60.5468 29.5557 60.1035 29.5557H51.7346C51.6723 29.0391 51.6308 28.5201 51.6102 28.0001ZM74.0444 28.0001C73.4817 28.0013 72.926 28.1242 72.4154 28.3605C71.9047 28.5969 71.4513 28.9409 71.0863 29.369C70.7212 29.7972 70.4532 30.2995 70.3006 30.841C70.148 31.3826 70.1144 31.9508 70.2022 32.5065C70.2352 32.7103 70.3478 32.8926 70.5152 33.0133C70.6827 33.1341 70.8913 33.1834 71.0951 33.1504C71.2989 33.1174 71.4812 33.005 71.602 32.8375C71.7228 32.6701 71.7721 32.4614 71.7391 32.2576C71.7199 32.1357 71.7105 32.0125 71.7111 31.889C71.7111 30.5824 72.7377 29.5557 74.0444 29.5557H77.1011C77.3074 29.5557 77.5052 29.4737 77.651 29.3278C77.7969 29.182 77.8789 28.9842 77.8789 28.7779C77.8789 28.5716 77.7969 28.3737 77.651 28.2278C77.5052 28.0819 77.3074 28.0001 77.1011 28.0001H74.0444ZM82.5906 28.0001C82.3843 28.0001 82.1865 28.0819 82.0407 28.2278C81.8948 28.3737 81.8128 28.5716 81.8128 28.7779C81.8128 28.9842 81.8948 29.182 82.0407 29.3278C82.1865 29.4737 82.3843 29.5557 82.5906 29.5557H90.16C89.9686 31.1517 89.628 32.7212 89.0508 34.2224H74.0444C73.8048 34.2224 73.5731 34.188 73.3584 34.1227C73.2604 34.0922 73.1574 34.0814 73.0552 34.091C72.9531 34.1005 72.8538 34.1302 72.7631 34.1783C72.6725 34.2264 72.5923 34.2918 72.527 34.371C72.4618 34.4503 72.4129 34.5417 72.3832 34.6399C72.3534 34.7381 72.3434 34.8413 72.3537 34.9434C72.3639 35.0455 72.3943 35.1443 72.443 35.2346C72.4917 35.3249 72.5578 35.4047 72.6375 35.4693C72.7172 35.534 72.8089 35.5823 72.9073 35.6114C73.2682 35.7203 73.6524 35.7779 74.0444 35.7779H89.656C89.8092 35.7774 89.9588 35.7316 90.0861 35.6463C90.2134 35.5611 90.3127 35.4401 90.3715 35.2986C91.2255 33.2406 91.7451 31.0583 91.9115 28.837C91.9194 28.7305 91.9053 28.6235 91.8701 28.5227C91.8348 28.4219 91.7792 28.3293 91.7067 28.251C91.6342 28.1726 91.5463 28.1101 91.4485 28.0672C91.3507 28.0242 91.2452 28.002 91.1384 28.0017H82.5906V28.0001Z" fill="#0496FF"/>
<path d="M92.4 10.8887C90.538 10.9992 88.1549 11.5639 85.3284 12.5361C85.2046 12.5783 85.0933 12.651 85.0051 12.7476C84.9168 12.8443 84.8543 12.9617 84.8234 13.0889C84.7926 13.216 84.7943 13.3489 84.8285 13.4753C84.8626 13.6016 84.9281 13.7173 85.0189 13.8116C85.4389 14.2502 85.8387 14.706 86.2167 15.1805C86.3156 15.306 86.4508 15.3979 86.6039 15.4438C86.757 15.4898 86.9205 15.4875 87.0722 15.4372C87.9511 15.1416 88.7569 15.0841 89.3449 15.1696C89.9282 15.2552 90.2424 15.4901 90.3202 15.613C90.4136 15.7795 90.4882 16.1823 90.3109 16.7563C90.1336 17.3319 89.7198 18.0536 88.9996 18.791C85.5836 22.0856 79.5822 26.4148 72.8529 30.4001C66.1018 34.3948 59.3942 37.5821 54.8613 38.9868C54.0338 39.2061 53.0569 39.2559 52.4316 39.1081C52.1173 39.0335 51.9073 38.912 51.8171 38.8218C51.7269 38.7316 51.6973 38.6959 51.7144 38.4999C51.7164 38.4777 51.7175 38.4552 51.7176 38.4329C51.7176 37.918 52.1951 36.9427 53.0289 35.4976C53.0887 35.3939 53.1238 35.2776 53.1313 35.1581C53.1389 35.0386 53.1187 34.919 53.0724 34.8085C52.8365 34.2493 52.6267 33.6793 52.444 33.1005C52.4046 32.9762 52.3346 32.8637 52.2404 32.7735C52.1462 32.6833 52.0308 32.6183 51.9048 32.5844C51.7789 32.5505 51.6464 32.5488 51.5196 32.5794C51.3929 32.6101 51.2758 32.6721 51.1793 32.7598C49.0311 34.7167 47.2982 36.1944 46.2156 37.624C45.6727 38.3395 45.2853 39.0598 45.1547 39.8423C45.024 40.6263 45.1889 41.4445 45.626 42.2005C46.3727 43.4947 47.7773 44.3316 49.6113 44.5494C51.4469 44.7671 53.7398 44.4312 56.5693 43.4606C61.7867 41.6763 68.2033 38.5931 74.5547 34.8349C80.8858 31.086 86.6569 26.956 90.7278 23.2507C92.9367 21.244 94.78 19.1378 95.8829 17.2229C96.4351 16.2662 96.81 15.3562 96.9158 14.4773C97.02 13.6295 96.7913 12.7756 96.2111 12.1487C95.8579 11.632 95.3342 11.256 94.7318 11.0863C94.0707 10.8888 93.3007 10.8374 92.4016 10.8887C92.4005 10.8887 92.3995 10.8887 92.3984 10.8887H92.4ZM92.4902 12.4412C93.2696 12.3976 93.8809 12.4567 94.2884 12.5781C94.696 12.6994 94.8733 12.8534 94.9667 13.0089C94.9994 13.0655 95.0391 13.1178 95.0849 13.1644C95.3415 13.4227 95.4411 13.7307 95.3727 14.2891C95.3058 14.8491 95.0211 15.6037 94.5342 16.4468C93.562 18.1346 91.8073 20.1691 89.6824 22.1011C85.7298 25.6991 80.0224 29.7918 73.766 33.4972C67.4878 37.2103 61.1318 40.2545 56.0638 41.9889C53.3789 42.9083 51.282 43.1837 49.7949 43.0063C48.3062 42.829 47.4584 42.2627 46.9747 41.4227C46.6791 40.914 46.6169 40.5299 46.6884 40.099C46.7616 39.6681 47.0027 39.1656 47.4553 38.5683C48.202 37.5836 49.7451 36.2193 51.3862 34.7307C51.4329 34.8551 51.4733 34.9811 51.5231 35.104C50.8138 36.322 50.1884 37.3284 50.1776 38.4018C50.1387 38.9773 50.344 39.5514 50.7142 39.9231C51.0938 40.3027 51.5713 40.5033 52.0722 40.6215C53.0756 40.858 54.2251 40.7709 55.272 40.4909C55.2825 40.486 55.2929 40.4808 55.3031 40.4753C60.0553 39.0069 66.808 35.7776 73.6431 31.7331C73.6447 31.7331 73.6462 31.7331 73.6478 31.7331C80.4549 27.7011 86.5153 23.3518 90.0931 19.8969C90.0984 19.8918 90.1036 19.8866 90.1087 19.8813C90.9798 18.9931 91.532 18.0722 91.798 17.2058C92.0624 16.3378 92.0624 15.4995 91.6704 14.8197C91.6674 14.8145 91.6643 14.8093 91.6611 14.8041C91.2333 14.0963 90.4509 13.7479 89.5704 13.6204C88.8611 13.5161 88.0149 13.6794 87.1609 13.8909C87.1142 13.8334 87.0613 13.779 87.0116 13.7199C89.1333 13.0665 91.1571 12.5112 92.4902 12.4319V12.4412Z" fill="#0496FF"/>
<path fill-rule="evenodd" clip-rule="evenodd" d="M59.3008 40.8334C59.0946 40.8334 58.8967 40.9152 58.7509 41.061C58.605 41.2069 58.5231 41.4049 58.5231 41.6112C58.5231 41.8174 58.605 42.0152 58.7509 42.1611C58.8967 42.3069 59.0946 42.3889 59.3008 42.3889H68.6342C68.8405 42.3889 69.0383 42.3069 69.1842 42.1611C69.33 42.0152 69.412 41.8174 69.412 41.6112C69.412 41.4049 69.33 41.2069 69.1842 41.061C69.0383 40.9152 68.8405 40.8334 68.6342 40.8334H59.3008ZM60.8564 43.9445C60.6501 43.9445 60.4523 44.0263 60.3064 44.1722C60.1606 44.318 60.0786 44.516 60.0786 44.7223C60.0786 44.9285 60.1606 45.1263 60.3064 45.2722C60.4523 45.418 60.6501 45.5 60.8564 45.5H70.1897C70.396 45.5 70.5938 45.418 70.7397 45.2722C70.8856 45.1263 70.9675 44.9285 70.9675 44.7223C70.9675 44.516 70.8856 44.318 70.7397 44.1722C70.5938 44.0263 70.396 43.9445 70.1897 43.9445H60.8564Z" fill="#0496FF"/>
<path d="M73.3009 44.7238C73.3009 44.9301 73.219 45.1279 73.0731 45.2737C72.9273 45.4196 72.7294 45.5016 72.5231 45.5016C72.3169 45.5016 72.119 45.4196 71.9732 45.2737C71.8273 45.1279 71.7454 44.9301 71.7454 44.7238C71.7454 44.5175 71.8273 44.3196 71.9732 44.1737C72.119 44.0279 72.3169 43.946 72.5231 43.946C72.7294 43.946 72.9273 44.0279 73.0731 44.1737C73.219 44.3196 73.3009 44.5175 73.3009 44.7238Z" fill="#0496FF"/>
<path fill-rule="evenodd" clip-rule="evenodd" d="M77.2022 37.7223C76.9959 37.7223 76.7981 37.8041 76.6522 37.95C76.5064 38.0958 76.4244 38.2938 76.4244 38.5001C76.4244 38.7063 76.5064 38.9041 76.6522 39.05C76.7981 39.1958 76.9959 39.2778 77.2022 39.2778H87.6524C87.8587 39.2778 88.0566 39.1958 88.2024 39.05C88.3483 38.9041 88.4302 38.7063 88.4302 38.5001C88.4302 38.2938 88.3483 38.0958 88.2024 37.95C88.0566 37.8041 87.8587 37.7223 87.6524 37.7223H77.2022Z" fill="#0496FF"/>
<path d="M74.8565 38.5015C74.8565 38.7078 74.7745 38.9056 74.6287 39.0514C74.4828 39.1973 74.285 39.2793 74.0787 39.2793C73.8724 39.2793 73.6746 39.1973 73.5287 39.0514C73.3828 38.9056 73.3009 38.7078 73.3009 38.5015C73.3009 38.2953 73.3828 38.0973 73.5287 37.9514C73.6746 37.8056 73.8724 37.7238 74.0787 37.7238C74.285 37.7238 74.4828 37.8056 74.6287 37.9514C74.7745 38.0973 74.8565 38.2953 74.8565 38.5015Z" fill="#0496FF"/>
<path fill-rule="evenodd" clip-rule="evenodd" d="M51.5137 23.7223C51.3075 23.7223 51.1096 23.8041 50.9638 23.95C50.8179 24.0958 50.736 24.2938 50.736 24.5001C50.736 24.7063 50.8179 24.9041 50.9638 25.05C51.1096 25.1958 51.3075 25.2778 51.5137 25.2778H60.0693C60.2756 25.2778 60.4734 25.1958 60.6193 25.05C60.7651 24.9041 60.8471 24.7063 60.8471 24.5001C60.8471 24.2938 60.7651 24.0958 60.6193 23.95C60.4734 23.8041 60.2756 23.7223 60.0693 23.7223H51.5137Z" fill="#0496FF"/>
<path d="M63.98 24.5015C63.98 24.7078 63.898 24.9056 63.7522 25.0514C63.6063 25.1973 63.4085 25.2793 63.2022 25.2793C62.9959 25.2793 62.7981 25.1973 62.6522 25.0514C62.5064 24.9056 62.4244 24.7078 62.4244 24.5015C62.4244 24.2953 62.5064 24.0973 62.6522 23.9514C62.7981 23.8056 62.9959 23.7238 63.2022 23.7238C63.4085 23.7238 63.6063 23.8056 63.7522 23.9514C63.898 24.0973 63.98 24.2953 63.98 24.5015Z" fill="#0496FF"/>
<path d="M13.0909 16.1875C12.9716 15.7727 12.804 15.4062 12.5881 15.0881C12.3722 14.7642 12.108 14.4915 11.7955 14.2699C11.4886 14.0426 11.1364 13.8693 10.7386 13.75C10.3466 13.6307 9.91193 13.571 9.43466 13.571C8.54261 13.571 7.75852 13.7926 7.08239 14.2358C6.41193 14.679 5.8892 15.3239 5.5142 16.1705C5.1392 17.0114 4.9517 18.0398 4.9517 19.2557C4.9517 20.4716 5.13636 21.5057 5.50568 22.358C5.875 23.2102 6.39773 23.8608 7.07386 24.3097C7.75 24.7528 8.5483 24.9744 9.46875 24.9744C10.304 24.9744 11.017 24.8267 11.608 24.5312C12.2045 24.2301 12.6591 23.8068 12.9716 23.2614C13.2898 22.7159 13.4489 22.071 13.4489 21.3267L14.1989 21.4375H9.69886V18.6591H17.0028V20.858C17.0028 22.392 16.679 23.7102 16.0312 24.8125C15.3835 25.9091 14.4915 26.7557 13.3551 27.3523C12.2188 27.9432 10.9176 28.2386 9.4517 28.2386C7.81534 28.2386 6.37784 27.8778 5.1392 27.1562C3.90057 26.429 2.93466 25.3977 2.24148 24.0625C1.55398 22.7216 1.21023 21.1307 1.21023 19.2898C1.21023 17.875 1.41477 16.6136 1.82386 15.5057C2.23864 14.392 2.81818 13.4489 3.5625 12.6761C4.30682 11.9034 5.1733 11.3153 6.16193 10.9119C7.15057 10.5085 8.22159 10.3068 9.375 10.3068C10.3636 10.3068 11.2841 10.4517 12.1364 10.7415C12.9886 11.0256 13.7443 11.429 14.4034 11.9517C15.0682 12.4744 15.6108 13.0966 16.0312 13.8182C16.4517 14.5341 16.7216 15.3239 16.8409 16.1875H13.0909ZM22.2396 28.2472C21.4044 28.2472 20.6601 28.1023 20.0067 27.8125C19.3533 27.517 18.8362 27.0824 18.4555 26.5085C18.0805 25.929 17.893 25.2074 17.893 24.3438C17.893 23.6165 18.0266 23.0057 18.2936 22.5114C18.5607 22.017 18.9243 21.6193 19.3845 21.3182C19.8447 21.017 20.3675 20.7898 20.9527 20.6364C21.5436 20.483 22.1629 20.375 22.8107 20.3125C23.572 20.233 24.1857 20.1591 24.6516 20.0909C25.1175 20.017 25.4555 19.9091 25.6658 19.767C25.876 19.625 25.9811 19.4148 25.9811 19.1364V19.0852C25.9811 18.5455 25.8107 18.1278 25.4697 17.8324C25.1345 17.5369 24.6572 17.3892 24.0379 17.3892C23.3845 17.3892 22.8646 17.5341 22.4783 17.8239C22.0919 18.108 21.8362 18.4659 21.7112 18.8977L18.3533 18.625C18.5237 17.8295 18.8589 17.142 19.3589 16.5625C19.8589 15.9773 20.5038 15.5284 21.2936 15.2159C22.0891 14.8977 23.0095 14.7386 24.055 14.7386C24.7822 14.7386 25.4783 14.8239 26.143 14.9943C26.8135 15.1648 27.4072 15.429 27.9243 15.7869C28.447 16.1449 28.8589 16.6051 29.1601 17.1676C29.4612 17.7244 29.6118 18.392 29.6118 19.1705V28H26.1686V26.1847H26.0663C25.8561 26.5938 25.5749 26.9545 25.2226 27.267C24.8703 27.5739 24.447 27.8153 23.9527 27.9915C23.4584 28.1619 22.8874 28.2472 22.2396 28.2472ZM23.2794 25.7415C23.8135 25.7415 24.2851 25.6364 24.6942 25.4261C25.1033 25.2102 25.4243 24.9205 25.6572 24.5568C25.8902 24.1932 26.0067 23.7812 26.0067 23.321V21.9318C25.893 22.0057 25.7368 22.0739 25.5379 22.1364C25.3447 22.1932 25.126 22.2472 24.8817 22.2983C24.6374 22.3437 24.393 22.3864 24.1487 22.4261C23.9044 22.4602 23.6828 22.4915 23.4839 22.5199C23.0578 22.5824 22.6857 22.6818 22.3675 22.8182C22.0493 22.9545 21.8021 23.1392 21.626 23.3722C21.4499 23.5994 21.3618 23.8835 21.3618 24.2244C21.3618 24.7188 21.5408 25.0966 21.8987 25.358C22.2624 25.6136 22.7226 25.7415 23.2794 25.7415ZM34.8592 10.5455V28H31.2286V10.5455H34.8592ZM40.3006 28.2472C39.4653 28.2472 38.721 28.1023 38.0676 27.8125C37.4142 27.517 36.8972 27.0824 36.5165 26.5085C36.1415 25.929 35.954 25.2074 35.954 24.3438C35.954 23.6165 36.0875 23.0057 36.3545 22.5114C36.6216 22.017 36.9852 21.6193 37.4455 21.3182C37.9057 21.017 38.4284 20.7898 39.0136 20.6364C39.6045 20.483 40.2239 20.375 40.8716 20.3125C41.633 20.233 42.2466 20.1591 42.7125 20.0909C43.1784 20.017 43.5165 19.9091 43.7267 19.767C43.9369 19.625 44.042 19.4148 44.042 19.1364V19.0852C44.042 18.5455 43.8716 18.1278 43.5307 17.8324C43.1955 17.5369 42.7182 17.3892 42.0989 17.3892C41.4455 17.3892 40.9256 17.5341 40.5392 17.8239C40.1528 18.108 39.8972 18.4659 39.7722 18.8977L36.4142 18.625C36.5847 17.8295 36.9199 17.142 37.4199 16.5625C37.9199 15.9773 38.5648 15.5284 39.3545 15.2159C40.15 14.8977 41.0705 14.7386 42.1159 14.7386C42.8432 14.7386 43.5392 14.8239 44.204 14.9943C44.8744 15.1648 45.4682 15.429 45.9852 15.7869C46.508 16.1449 46.9199 16.6051 47.221 17.1676C47.5222 17.7244 47.6727 18.392 47.6727 19.1705V28H44.2295V26.1847H44.1273C43.917 26.5938 43.6358 26.9545 43.2835 27.267C42.9313 27.5739 42.508 27.8153 42.0136 27.9915C41.5193 28.1619 40.9483 28.2472 40.3006 28.2472ZM41.3403 25.7415C41.8744 25.7415 42.346 25.6364 42.7551 25.4261C43.1642 25.2102 43.4852 24.9205 43.7182 24.5568C43.9511 24.1932 44.0676 23.7812 44.0676 23.321V21.9318C43.954 22.0057 43.7977 22.0739 43.5989 22.1364C43.4057 22.1932 43.1869 22.2472 42.9426 22.2983C42.6983 22.3437 42.454 22.3864 42.2097 22.4261C41.9653 22.4602 41.7438 22.4915 41.5449 22.5199C41.1188 22.5824 40.7466 22.6818 40.4284 22.8182C40.1102 22.9545 39.8631 23.1392 39.6869 23.3722C39.5108 23.5994 39.4227 23.8835 39.4227 24.2244C39.4227 24.7188 39.6017 25.0966 39.9597 25.358C40.3233 25.6136 40.7835 25.7415 41.3403 25.7415ZM52.3236 14.9091L54.727 19.4858L57.1901 14.9091H60.9145L57.1219 21.4545L61.0168 28H57.3094L54.727 23.4744L52.1872 28H48.4372L52.3236 21.4545L48.5736 14.9091H52.3236ZM64.1122 32.9091C63.652 32.9091 63.2202 32.8722 62.8168 32.7983C62.419 32.7301 62.0895 32.642 61.8281 32.5341L62.6463 29.8239C63.0724 29.9545 63.456 30.0256 63.7969 30.0369C64.1435 30.0483 64.4418 29.9688 64.6918 29.7983C64.9474 29.6278 65.1548 29.3381 65.3139 28.929L65.527 28.375L60.831 14.9091H64.6491L67.3594 24.5227H67.4957L70.2315 14.9091H74.0753L68.9872 29.4148C68.7429 30.1193 68.4105 30.733 67.9901 31.2557C67.5753 31.7841 67.0497 32.1903 66.4134 32.4744C65.777 32.7642 65.0099 32.9091 64.1122 32.9091Z" fill="white"/>
<path d="M8.23935 34.674C8.18821 34.1584 7.96875 33.7578 7.58097 33.4723C7.19318 33.1868 6.6669 33.044 6.00213 33.044C5.55043 33.044 5.16903 33.108 4.85795 33.2358C4.54688 33.3594 4.30824 33.532 4.14205 33.7536C3.98011 33.9751 3.89915 34.2266 3.89915 34.5078C3.89063 34.7422 3.93963 34.9467 4.04616 35.1214C4.15696 35.2962 4.30824 35.4474 4.5 35.5753C4.69176 35.6989 4.91335 35.8075 5.16477 35.9013C5.41619 35.9908 5.68466 36.0675 5.97017 36.1314L7.14631 36.4126C7.71733 36.5405 8.24148 36.7109 8.71875 36.924C9.19602 37.1371 9.60938 37.3991 9.95881 37.7102C10.3082 38.0213 10.5788 38.3878 10.7706 38.8097C10.9666 39.2315 11.0668 39.7152 11.071 40.2607C11.0668 41.0618 10.8622 41.7564 10.4574 42.3445C10.0568 42.9283 9.47727 43.3821 8.71875 43.706C7.96449 44.0256 7.05469 44.1854 5.98935 44.1854C4.93253 44.1854 4.01207 44.0234 3.22798 43.6996C2.44815 43.3757 1.83878 42.8963 1.39986 42.2614C0.965199 41.6222 0.737216 40.8317 0.715909 39.8899H3.39418C3.42401 40.3288 3.54972 40.6953 3.77131 40.9893C3.99716 41.2791 4.29759 41.4986 4.67259 41.6477C5.05185 41.7926 5.48011 41.8651 5.95739 41.8651C6.42614 41.8651 6.8331 41.7969 7.17827 41.6605C7.5277 41.5241 7.7983 41.3345 7.99006 41.0916C8.18182 40.8487 8.2777 40.5696 8.2777 40.2543C8.2777 39.9602 8.19034 39.7131 8.01562 39.5128C7.84517 39.3125 7.59375 39.142 7.26136 39.0014C6.93324 38.8608 6.53054 38.733 6.05327 38.6179L4.62784 38.2599C3.52415 37.9915 2.6527 37.5717 2.01349 37.0007C1.37429 36.4297 1.05682 35.6605 1.06108 34.6932C1.05682 33.9006 1.26776 33.2081 1.69389 32.6158C2.12429 32.0234 2.71449 31.5611 3.46449 31.2287C4.21449 30.8963 5.06676 30.7301 6.02131 30.7301C6.9929 30.7301 7.84091 30.8963 8.56534 31.2287C9.29403 31.5611 9.8608 32.0234 10.2656 32.6158C10.6705 33.2081 10.8793 33.8942 10.892 34.674H8.23935ZM17.3176 44.1918C16.3248 44.1918 15.4661 43.9808 14.7417 43.5589C14.0215 43.1328 13.4654 42.5405 13.0733 41.782C12.6813 41.0192 12.4853 40.1349 12.4853 39.1293C12.4853 38.1151 12.6813 37.2287 13.0733 36.4702C13.4654 35.7074 14.0215 35.1151 14.7417 34.6932C15.4661 34.267 16.3248 34.054 17.3176 34.054C18.3105 34.054 19.1671 34.267 19.8873 34.6932C20.6117 35.1151 21.1699 35.7074 21.562 36.4702C21.954 37.2287 22.15 38.1151 22.15 39.1293C22.15 40.1349 21.954 41.0192 21.562 41.782C21.1699 42.5405 20.6117 43.1328 19.8873 43.5589C19.1671 43.9808 18.3105 44.1918 17.3176 44.1918ZM17.3304 42.0824C17.7821 42.0824 18.1593 41.9545 18.4618 41.6989C18.7644 41.4389 18.9924 41.0852 19.1458 40.6378C19.3034 40.1903 19.3823 39.6811 19.3823 39.1101C19.3823 38.5391 19.3034 38.0298 19.1458 37.5824C18.9924 37.1349 18.7644 36.7812 18.4618 36.5213C18.1593 36.2614 17.7821 36.1314 17.3304 36.1314C16.8745 36.1314 16.4909 36.2614 16.1799 36.5213C15.873 36.7812 15.6408 37.1349 15.4831 37.5824C15.3297 38.0298 15.253 38.5391 15.253 39.1101C15.253 39.6811 15.3297 40.1903 15.4831 40.6378C15.6408 41.0852 15.873 41.4389 16.1799 41.6989C16.4909 41.9545 16.8745 42.0824 17.3304 42.0824ZM26.6436 30.9091V44H23.9206V30.9091H26.6436ZM31.6246 44.1854C30.9982 44.1854 30.44 44.0767 29.9499 43.8594C29.4599 43.6378 29.0721 43.3118 28.7866 42.8814C28.5053 42.4467 28.3647 41.9055 28.3647 41.2578C28.3647 40.7124 28.4648 40.2543 28.6651 39.8835C28.8654 39.5128 29.1381 39.2145 29.4833 38.9886C29.8285 38.7628 30.2205 38.5923 30.6594 38.4773C31.1026 38.3622 31.5671 38.2812 32.0529 38.2344C32.6239 38.1747 33.0842 38.1193 33.4336 38.0682C33.783 38.0128 34.0366 37.9318 34.1942 37.8253C34.3519 37.7187 34.4308 37.5611 34.4308 37.3523V37.3139C34.4308 36.9091 34.3029 36.5959 34.0472 36.3743C33.7958 36.1527 33.4379 36.0419 32.9734 36.0419C32.4833 36.0419 32.0934 36.1506 31.8036 36.3679C31.5138 36.581 31.3221 36.8494 31.2283 37.1733L28.7099 36.9688C28.8377 36.3722 29.0891 35.8565 29.4641 35.4219C29.8391 34.983 30.3228 34.6463 30.9151 34.4119C31.5117 34.1733 32.2021 34.054 32.9862 34.054C33.5316 34.054 34.0536 34.1179 34.5522 34.2457C35.055 34.3736 35.5004 34.5717 35.8881 34.8402C36.2802 35.1087 36.5891 35.4538 36.815 35.8757C37.0408 36.2933 37.1538 36.794 37.1538 37.3778V44H34.5714V42.6385H34.4947C34.337 42.9453 34.1261 43.2159 33.8619 43.4503C33.5977 43.6804 33.2802 43.8615 32.9094 43.9936C32.5387 44.1214 32.1104 44.1854 31.6246 44.1854ZM32.4045 42.3061C32.805 42.3061 33.1587 42.2273 33.4656 42.0696C33.7724 41.9077 34.0131 41.6903 34.1879 41.4176C34.3626 41.1449 34.4499 40.8359 34.4499 40.4908V39.4489C34.3647 39.5043 34.2475 39.5554 34.0984 39.6023C33.9535 39.6449 33.7894 39.6854 33.6062 39.7237C33.4229 39.7578 33.2397 39.7898 33.0565 39.8196C32.8732 39.8452 32.707 39.8686 32.5579 39.8899C32.2383 39.9368 31.9592 40.0114 31.7205 40.1136C31.4819 40.2159 31.2965 40.3544 31.1644 40.5291C31.0323 40.6996 30.9663 40.9126 30.9663 41.1683C30.9663 41.5391 31.1005 41.8224 31.369 42.0185C31.6417 42.2102 31.9869 42.3061 32.4045 42.3061ZM39.2663 44V34.1818H41.9062V35.8949H42.0085C42.1875 35.2855 42.4879 34.8253 42.9098 34.5142C43.3317 34.1989 43.8175 34.0412 44.3672 34.0412C44.5036 34.0412 44.6506 34.0497 44.8082 34.0668C44.9659 34.0838 45.1044 34.1072 45.2237 34.1371V36.5533C45.0959 36.5149 44.919 36.4808 44.6932 36.451C44.4673 36.4212 44.2607 36.4062 44.0732 36.4062C43.6726 36.4062 43.3146 36.4936 42.9993 36.6683C42.6882 36.8388 42.4411 37.0774 42.2578 37.3842C42.0788 37.6911 41.9893 38.0447 41.9893 38.4453V44H39.2663Z" fill="#0496FF"/>
</svg>
